<svg viewBox="-0.16077493 -0.16030288 3.5370476 3.5266626" xmlns="http://www.w3.org/2000/svg">
<g id="container_0">
<path d="M0,0 L3.2154977,0 L3.2154977,3.2060568 L0,3.2060568 z" fill="#D3D3D3" stroke="black" stroke-width="0.017633313"/>
<title>container, id: 0, bbox: [x_min: 0.000, y_min: 0.000, x_max: 3.215, y_max: 3.206]</title>
</g>
<g id="items">
<defs>
<g id="item_0">
<path d="M-0.125,0.5 L-0.0625,0.5 L-0.2,0.25 L-0.1,0.25 L-0.35,0 L-0.075,0 L-0.075,-0.2 L0.075,-0.2 L0.075,0 L0.35,0 L0.1,0.25 L0.2,0.25 L0.0625,0.5 L0.125,0.5 L0,0.8 z" fill="#7A7A7A" fill-opacity="0.5" fill-rule="nonzero" stroke="black" stroke-width="0.008816657"/>
</g>
<g id="cd_shape_0">
<path d="M-0.125,0.5 L-0.0625,0.5 L-0.2,0.25 L-0.1,0.25 L-0.35,0 L-0.075,0 L-0.075,-0.19999999 L0.075,-0.19999999 L0.075,0 L0.35,0 L0.1,0.25 L0.2,0.25 L0.0625,0.5 L0.125,0.5 L0,0.8 z" fill="none" stroke="black" stroke-dasharray="0.008816657 0.017633313" stroke-linecap="round" stroke-linejoin="round" stroke-opacity="0.3" stroke-width="0.0044083283"/>
</g>
</defs>
<use href="#item_0" transform="translate(0.8709419 0.3209154), rotate(-113.61234)">
<title>item, id: 0, transf: [r: -113.612°, t: (0.871, 0.321)]</title>
</use>
<use href="#item_0" transform="translate(2.8914993 1.5386446), rotate(-22.25171)">
<title>item, id: 0, transf: [r: -22.252°, t: (2.891, 1.539)]</title>
</use>
<use href="#item_0" transform="translate(1.2686281 0.89020526), rotate(-163.9856)">
<title>item, id: 0, transf: [r: -163.986°, t: (1.269, 0.890)]</title>
</use>
<use href="#item_0" transform="translate(2.305303 1.0391762), rotate(-70.32805)">
<title>item, id: 0, transf: [r: -70.328°, t: (2.305, 1.039)]</title>
</use>
<use href="#item_0" transform="translate(0.9239771 2.0818226), rotate(24.148022)">
<title>item, id: 0, transf: [r: 24.148°, t: (0.924, 2.082)]</title>
</use>
<use href="#item_0" transform="translate(0.77333724 0.66729885), rotate(71.00165)">
<title>item, id: 0, transf: [r: 71.002°, t: (0.773, 0.667)]</title>
</use>
<use href="#item_0" transform="translate(1.7101719 1.701234), rotate(156.5491)">
<title>item, id: 0, transf: [r: 156.549°, t: (1.710, 1.701)]</title>
</use>
<use href="#item_0" transform="translate(0.5435605 1.8814247), rotate(-162.44981)">
<title>item, id: 0, transf: [r: -162.450°, t: (0.544, 1.881)]</title>
</use>
<use href="#item_0" transform="translate(1.9386519 2.9910352), rotate(-143.50818)">
<title>item, id: 0, transf: [r: -143.508°, t: (1.939, 2.991)]</title>
</use>
<use href="#item_0" transform="translate(1.8289158 0.23864679), rotate(15.695162)">
<title>item, id: 0, transf: [r: 15.695°, t: (1.829, 0.239)]</title>
</use>
<use href="#item_0" transform="translate(2.1799562 2.1212466), rotate(39.539215)">
<title>item, id: 0, transf: [r: 39.539°, t: (2.180, 2.121)]</title>
</use>
<use href="#item_0" transform="translate(1.5673561 2.0094538), rotate(-5.9649577)">
<title>item, id: 0, transf: [r: -5.965°, t: (1.567, 2.009)]</title>
</use>
<use href="#item_0" transform="translate(1.469642 2.9921696), rotate(163.59895)">
<title>item, id: 0, transf: [r: 163.599°, t: (1.470, 2.992)]</title>
</use>
<use href="#item_0" transform="translate(1.1528989 1.9263551), rotate(-164.93156)">
<title>item, id: 0, transf: [r: -164.932°, t: (1.153, 1.926)]</title>
</use>
<use href="#item_0" transform="translate(1.8498873 1.1630385), rotate(-163.7429)">
<title>item, id: 0, transf: [r: -163.743°, t: (1.850, 1.163)]</title>
</use>
<use href="#item_0" transform="translate(1.0519601 1.0418657), rotate(14.700174)">
<title>item, id: 0, transf: [r: 14.700°, t: (1.052, 1.042)]</title>
</use>
<use href="#item_0" transform="translate(0.3414045 2.9940357), rotate(-167.04637)">
<title>item, id: 0, transf: [r: -167.046°, t: (0.341, 2.994)]</title>
</use>
<use href="#item_0" transform="translate(2.6420536 1.9296736), rotate(13.334366)">
<title>item, id: 0, transf: [r: 13.334°, t: (2.642, 1.930)]</title>
</use>
<use href="#item_0" transform="translate(2.8935955 2.412666), rotate(-23.222874)">
<title>item, id: 0, transf: [r: -23.223°, t: (2.894, 2.413)]</title>
</use>
<use href="#item_0" transform="translate(0.8429996 2.9940376), rotate(-152.46626)">
<title>item, id: 0, transf: [r: -152.466°, t: (0.843, 2.994)]</title>
</use>
<use href="#item_0" transform="translate(0.32610106 2.0272648), rotate(21.42619)">
<title>item, id: 0, transf: [r: 21.426°, t: (0.326, 2.027)]</title>
</use>
<use href="#item_0" transform="translate(2.46617 2.8852506), rotate(-66.359665)">
<title>item, id: 0, transf: [r: -66.360°, t: (2.466, 2.885)]</title>
</use>
<use href="#item_0" transform="translate(2.499062 0.6548956), rotate(144.9331)">
<title>item, id: 0, transf: [r: 144.933°, t: (2.499, 0.655)]</title>
</use>
<use href="#item_0" transform="translate(0.35059658 1.1099315), rotate(24.382872)">
<title>item, id: 0, transf: [r: 24.383°, t: (0.351, 1.110)]</title>
</use>
<use href="#item_0" transform="translate(0.32726118 0.21326223), rotate(24.145668)">
<title>item, id: 0, transf: [r: 24.146°, t: (0.327, 0.213)]</title>
</use>
<use href="#item_0" transform="translate(2.065021 1.6408395), rotate(-113.1595)">
<title>item, id: 0, transf: [r: -113.160°, t: (2.065, 1.641)]</title>
</use>
<use href="#item_0" transform="translate(3.0022063 0.32634512), rotate(113.97229)">
<title>item, id: 0, transf: [r: 113.972°, t: (3.002, 0.326)]</title>
</use>
<use href="#item_0" transform="translate(2.8115098 0.7136694), rotate(-30.201641)">
<title>item, id: 0, transf: [r: -30.202°, t: (2.812, 0.714)]</title>
</use>
</g>
<g id="quality_zones"/>
<g id="optionals">
<g id="highlight_cd_shapes">
<use href="#cd_shape_0" transform="translate(0.8709419 0.3209154), rotate(-113.61234)"/>
<use href="#cd_shape_0" transform="translate(2.8914993 1.5386446), rotate(-22.25171)"/>
<use href="#cd_shape_0" transform="translate(1.2686281 0.89020526), rotate(-163.9856)"/>
<use href="#cd_shape_0" transform="translate(2.305303 1.0391762), rotate(-70.32805)"/>
<use href="#cd_shape_0" transform="translate(0.9239771 2.0818226), rotate(24.148022)"/>
<use href="#cd_shape_0" transform="translate(0.77333724 0.66729885), rotate(71.00165)"/>
<use href="#cd_shape_0" transform="translate(1.7101719 1.701234), rotate(156.5491)"/>
<use href="#cd_shape_0" transform="translate(0.5435605 1.8814247), rotate(-162.44981)"/>
<use href="#cd_shape_0" transform="translate(1.9386519 2.9910352), rotate(-143.50818)"/>
<use href="#cd_shape_0" transform="translate(1.8289158 0.23864679), rotate(15.695162)"/>
<use href="#cd_shape_0" transform="translate(2.1799562 2.1212466), rotate(39.539215)"/>
<use href="#cd_shape_0" transform="translate(1.5673561 2.0094538), rotate(-5.9649577)"/>
<use href="#cd_shape_0" transform="translate(1.469642 2.9921696), rotate(163.59895)"/>
<use href="#cd_shape_0" transform="translate(1.1528989 1.9263551), rotate(-164.93156)"/>
<use href="#cd_shape_0" transform="translate(1.8498873 1.1630385), rotate(-163.7429)"/>
<use href="#cd_shape_0" transform="translate(1.0519601 1.0418657), rotate(14.700174)"/>
<use href="#cd_shape_0" transform="translate(0.3414045 2.9940357), rotate(-167.04637)"/>
<use href="#cd_shape_0" transform="translate(2.6420536 1.9296736), rotate(13.334366)"/>
<use href="#cd_shape_0" transform="translate(2.8935955 2.412666), rotate(-23.222874)"/>
<use href="#cd_shape_0" transform="translate(0.8429996 2.9940376), rotate(-152.46626)"/>
<use href="#cd_shape_0" transform="translate(0.32610106 2.0272648), rotate(21.42619)"/>
<use href="#cd_shape_0" transform="translate(2.46617 2.8852506), rotate(-66.359665)"/>
<use href="#cd_shape_0" transform="translate(2.499062 0.6548956), rotate(144.9331)"/>
<use href="#cd_shape_0" transform="translate(0.35059658 1.1099315), rotate(24.382872)"/>
<use href="#cd_shape_0" transform="translate(0.32726118 0.21326223), rotate(24.145668)"/>
<use href="#cd_shape_0" transform="translate(2.065021 1.6408395), rotate(-113.1595)"/>
<use href="#cd_shape_0" transform="translate(3.0022063 0.32634512), rotate(113.97229)"/>
<use href="#cd_shape_0" transform="translate(2.8115098 0.7136694), rotate(-30.201641)"/>
<path d="M0,0 L3.2154977,0 L3.2154977,3.2060568 L0,3.2060568 z" fill="none" stroke="black" stroke-dasharray="0.008816657 0.017633313" stroke-linecap="round" stroke-linejoin="round" stroke-opacity="0.3" stroke-width="0.0044083283"/>
</g>
<g id="surrogates">
<defs/>
</g>
<g id="collision_lines"/>
</g>
<text font-family="monospace" font-size="0.080151424" font-weight="500" x="0" y="-0.040075712">
h: 3.206 | w: 3.215 | d: 66.713% | SPARROW
</text>
</svg>